<svg xmlns="http://www.w3.org/2000/svg" width="1389" height="254" viewBox="0 0 1389 254" fill="none">
<path d="M672.417 39.8751V253.215H618.01V105.016C599.569 141.048 577.014 192.777 557.594 253.215H481.415C480.413 223.562 478.976 186.071 477.06 140.917C472.227 150.388 466.958 161.491 461.407 174.293C449.868 200.876 440.027 228.265 432.842 253.193H376.432C385.533 217.814 399.924 177.559 417.341 139.502C455.768 55.5507 478.018 44.9044 496.394 45.9276C503.687 46.3413 527.592 50.565 529.247 88.2298C530.444 115.227 531.489 140.09 532.447 162.776C540.242 143.16 548.45 124.044 556.962 105.843C570.09 77.7577 583.023 53.8089 594.344 36.6094C607.559 16.5142 622.712 -1.73041 643.766 0.751548C648.534 1.31761 672.439 5.86787 672.439 39.8751H672.417Z" fill="white"/>
<path d="M0 127.005H59.7413V253.476H115.411V127.005H175.153V71.3564H0V127.005Z" fill="white"/>
<path d="M241.513 134.385H363.021V190.447H241.513V197.806H363.021V253.258L188.826 253.476V71.3564H363.021V127.005H241.513V134.385Z" fill="white"/>
<path d="M815.585 71.3564H714.108V71.4653H686.11V253.476H741.78V189.359H815.585C848.134 189.359 874.586 162.884 874.586 130.357C874.586 97.8307 848.112 71.3564 815.585 71.3564ZM822.008 134.037H741.301V126.678H822.008C824.033 126.678 825.687 128.333 825.687 130.357C825.687 132.382 824.033 134.037 822.008 134.037Z" fill="white"/>
<path d="M1342.67 71.4119H1388.13L1387.87 253.234H1362.67V84.9186L1274.1 253.234H1238.25L1149.68 84.9186V253.234H1124.49V71.4119H1169.94L1256.7 239.467L1342.67 71.4119Z" fill="white"/>
<path d="M926.633 253.234V71.4119H1087.67V92.711H952.607V154.271H1062.48V175.05H952.607V253.234H926.633Z" fill="white"/>
<script xmlns=""/><link xmlns=""/></svg>